<svg width="21" height="20" viewBox="0 0 21 20" fill="none" xmlns="http://www.w3.org/2000/svg">
<path d="M18.8327 4.58398V15.4173C18.8327 15.7507 18.7077 16.0423 18.4577 16.2923C18.2077 16.5423 17.916 16.6673 17.5827 16.6673H3.41602C3.08268 16.6673 2.79102 16.5423 2.54102 16.2923C2.29102 16.0423 2.16602 15.7507 2.16602 15.4173V4.58398C2.16602 4.25065 2.29102 3.95898 2.54102 3.70898C2.79102 3.45898 3.08268 3.33398 3.41602 3.33398H17.5827C17.916 3.33398 18.2077 3.45898 18.4577 3.70898C18.7077 3.95898 18.8327 4.25065 18.8327 4.58398ZM3.41602 6.85482H17.5827V4.58398H3.41602V6.85482ZM3.41602 9.54232V15.4173H17.5827V9.54232H3.41602Z" fill="#9F56D4"/>
</svg>
