<svg width="21" height="20" viewBox="0 0 21 20" fill="none" xmlns="http://www.w3.org/2000/svg">
<path opacity="0.4" d="M14.0331 1.66699H6.96646C4.66646 1.66699 3.83313 2.50033 3.83313 4.84199V15.1587C3.83313 17.5003 4.66646 18.3337 6.96646 18.3337H14.0248C16.3331 18.3337 17.1665 17.5003 17.1665 15.1587V4.84199C17.1665 2.50033 16.3331 1.66699 14.0331 1.66699Z" fill="#9F56D4"/>
<path d="M12.1665 5.20801H8.83313C8.49146 5.20801 8.20813 4.92467 8.20813 4.58301C8.20813 4.24134 8.49146 3.95801 8.83313 3.95801H12.1665C12.5081 3.95801 12.7915 4.24134 12.7915 4.58301C12.7915 4.92467 12.5081 5.20801 12.1665 5.20801Z" fill="#9F56D4"/>
<path d="M10.5002 16.0837C11.3056 16.0837 11.9585 15.4307 11.9585 14.6253C11.9585 13.8199 11.3056 13.167 10.5002 13.167C9.69479 13.167 9.04187 13.8199 9.04187 14.6253C9.04187 15.4307 9.69479 16.0837 10.5002 16.0837Z" fill="#9F56D4"/>
</svg>
