<svg width="20" height="20" viewBox="0 0 20 20" fill="none" xmlns="http://www.w3.org/2000/svg">
<path d="M10.0167 17.1086C8.07505 17.1086 6.13339 16.8003 4.29172 16.1836C3.59172 15.9419 3.05839 15.4503 2.82505 14.8086C2.58339 14.1669 2.66672 13.4586 3.05005 12.8253L4.00839 11.2336C4.20839 10.9003 4.39172 10.2336 4.39172 9.84193V7.43359C4.39172 4.33359 6.91672 1.80859 10.0167 1.80859C13.1167 1.80859 15.6417 4.33359 15.6417 7.43359V9.84193C15.6417 10.2253 15.8251 10.9003 16.0251 11.2419L16.9751 12.8253C17.3334 13.4253 17.4001 14.1503 17.1584 14.8086C16.9167 15.4669 16.3917 15.9669 15.7334 16.1836C13.9001 16.8003 11.9584 17.1086 10.0167 17.1086ZM10.0167 3.05859C7.60839 3.05859 5.64172 5.01693 5.64172 7.43359V9.84193C5.64172 10.4503 5.39172 11.3503 5.08339 11.8753L4.12505 13.4669C3.94172 13.7753 3.89172 14.1003 4.00005 14.3753C4.10005 14.6586 4.35005 14.8753 4.69172 14.9919C8.17505 16.1586 11.8667 16.1586 15.3501 14.9919C15.6501 14.8919 15.8834 14.6669 15.9917 14.3669C16.1001 14.0669 16.0751 13.7419 15.9084 13.4669L14.9501 11.8753C14.6334 11.3336 14.3917 10.4419 14.3917 9.83359V7.43359C14.3917 5.01693 12.4334 3.05859 10.0167 3.05859Z" fill="#292D32"/>
<path d="M11.5666 3.2834C11.5083 3.2834 11.4499 3.27507 11.3916 3.2584C11.1499 3.19173 10.9166 3.14173 10.6916 3.1084C9.98327 3.01673 9.29993 3.06673 8.65827 3.2584C8.42493 3.3334 8.17493 3.2584 8.0166 3.0834C7.85827 2.9084 7.80827 2.6584 7.89993 2.4334C8.2416 1.5584 9.07493 0.983398 10.0249 0.983398C10.9749 0.983398 11.8083 1.55007 12.1499 2.4334C12.2333 2.6584 12.1916 2.9084 12.0333 3.0834C11.9083 3.21673 11.7333 3.2834 11.5666 3.2834Z" fill="#292D32"/>
<path d="M10.0166 19.0088C9.1916 19.0088 8.3916 18.6755 7.80827 18.0921C7.22493 17.5088 6.8916 16.7088 6.8916 15.8838H8.1416C8.1416 16.3755 8.3416 16.8588 8.6916 17.2088C9.0416 17.5588 9.52494 17.7588 10.0166 17.7588C11.0499 17.7588 11.8916 16.9171 11.8916 15.8838H13.1416C13.1416 17.6088 11.7416 19.0088 10.0166 19.0088Z" fill="#292D32"/>
</svg>
