<svg width="20" height="20" viewBox="0 0 20 20" fill="none" xmlns="http://www.w3.org/2000/svg">
<path d="M1.66675 8.12533C1.32508 8.12533 1.04175 7.84199 1.04175 7.50033V5.41699C1.04175 3.00033 3.00841 1.04199 5.41675 1.04199H7.50008C7.84175 1.04199 8.12508 1.32533 8.12508 1.66699C8.12508 2.00866 7.84175 2.29199 7.50008 2.29199H5.41675C3.69175 2.29199 2.29175 3.69199 2.29175 5.41699V7.50033C2.29175 7.84199 2.00841 8.12533 1.66675 8.12533Z" fill="#292D32"/>
<path d="M18.3333 8.12533C17.9917 8.12533 17.7083 7.84199 17.7083 7.50033V5.41699C17.7083 3.69199 16.3083 2.29199 14.5833 2.29199H12.5C12.1583 2.29199 11.875 2.00866 11.875 1.66699C11.875 1.32533 12.1583 1.04199 12.5 1.04199H14.5833C16.9917 1.04199 18.9583 3.00033 18.9583 5.41699V7.50033C18.9583 7.84199 18.675 8.12533 18.3333 8.12533Z" fill="#292D32"/>
<path d="M14.5833 18.958H13.3333C12.9916 18.958 12.7083 18.6747 12.7083 18.333C12.7083 17.9913 12.9916 17.708 13.3333 17.708H14.5833C16.3083 17.708 17.7083 16.308 17.7083 14.583V13.333C17.7083 12.9913 17.9916 12.708 18.3333 12.708C18.6749 12.708 18.9583 12.9913 18.9583 13.333V14.583C18.9583 16.9997 16.9916 18.958 14.5833 18.958Z" fill="#292D32"/>
<path d="M7.50008 18.9583H5.41675C3.00841 18.9583 1.04175 17 1.04175 14.5833V12.5C1.04175 12.1583 1.32508 11.875 1.66675 11.875C2.00841 11.875 2.29175 12.1583 2.29175 12.5V14.5833C2.29175 16.3083 3.69175 17.7083 5.41675 17.7083H7.50008C7.84175 17.7083 8.12508 17.9917 8.12508 18.3333C8.12508 18.675 7.84175 18.9583 7.50008 18.9583Z" fill="#292D32"/>
<path d="M7.49992 9.37467H5.83325C4.65825 9.37467 3.95825 8.67467 3.95825 7.49967V5.83301C3.95825 4.65801 4.65825 3.95801 5.83325 3.95801H7.49992C8.67492 3.95801 9.37492 4.65801 9.37492 5.83301V7.49967C9.37492 8.67467 8.67492 9.37467 7.49992 9.37467ZM5.83325 5.20801C5.34159 5.20801 5.20825 5.34134 5.20825 5.83301V7.49967C5.20825 7.99134 5.34159 8.12467 5.83325 8.12467H7.49992C7.99159 8.12467 8.12492 7.99134 8.12492 7.49967V5.83301C8.12492 5.34134 7.99159 5.20801 7.49992 5.20801H5.83325Z" fill="#292D32"/>
<path d="M14.1667 9.37467H12.5C11.325 9.37467 10.625 8.67467 10.625 7.49967V5.83301C10.625 4.65801 11.325 3.95801 12.5 3.95801H14.1667C15.3417 3.95801 16.0417 4.65801 16.0417 5.83301V7.49967C16.0417 8.67467 15.3417 9.37467 14.1667 9.37467ZM12.5 5.20801C12.0083 5.20801 11.875 5.34134 11.875 5.83301V7.49967C11.875 7.99134 12.0083 8.12467 12.5 8.12467H14.1667C14.6583 8.12467 14.7917 7.99134 14.7917 7.49967V5.83301C14.7917 5.34134 14.6583 5.20801 14.1667 5.20801H12.5Z" fill="#292D32"/>
<path d="M7.49992 16.0417H5.83325C4.65825 16.0417 3.95825 15.3417 3.95825 14.1667V12.5C3.95825 11.325 4.65825 10.625 5.83325 10.625H7.49992C8.67492 10.625 9.37492 11.325 9.37492 12.5V14.1667C9.37492 15.3417 8.67492 16.0417 7.49992 16.0417ZM5.83325 11.875C5.34159 11.875 5.20825 12.0083 5.20825 12.5V14.1667C5.20825 14.6583 5.34159 14.7917 5.83325 14.7917H7.49992C7.99159 14.7917 8.12492 14.6583 8.12492 14.1667V12.5C8.12492 12.0083 7.99159 11.875 7.49992 11.875H5.83325Z" fill="#292D32"/>
<path d="M14.1667 16.0417H12.5C11.325 16.0417 10.625 15.3417 10.625 14.1667V12.5C10.625 11.325 11.325 10.625 12.5 10.625H14.1667C15.3417 10.625 16.0417 11.325 16.0417 12.5V14.1667C16.0417 15.3417 15.3417 16.0417 14.1667 16.0417ZM12.5 11.875C12.0083 11.875 11.875 12.0083 11.875 12.5V14.1667C11.875 14.6583 12.0083 14.7917 12.5 14.7917H14.1667C14.6583 14.7917 14.7917 14.6583 14.7917 14.1667V12.5C14.7917 12.0083 14.6583 11.875 14.1667 11.875H12.5Z" fill="#292D32"/>
</svg>
